<svg xmlns="http://www.w3.org/2000/svg" width="156" height="43" viewBox="0 0 156 43" fill="none">
<g clip-path="url(#clip0_6_22)">
<circle cx="21.5" cy="21.5" r="21.5" fill="#c3e900"/>
<path d="M14.0039 24.2227H18.1055C18.0508 25.4102 17.7305 26.457 17.1445 27.3633C16.5586 28.2695 15.7461 28.9766 14.707 29.4844C13.6758 29.9844 12.457 30.2344 11.0508 30.2344C9.91016 30.2344 8.89062 30.043 7.99219 29.6602C7.10156 29.2773 6.34375 28.7266 5.71875 28.0078C5.10156 27.2891 4.62891 26.418 4.30078 25.3945C3.98047 24.3711 3.82031 23.2188 3.82031 21.9375V21.0117C3.82031 19.7305 3.98828 18.5781 4.32422 17.5547C4.66797 16.5234 5.15234 15.6484 5.77734 14.9297C6.41016 14.2031 7.16797 13.6484 8.05078 13.2656C8.93359 12.8828 9.91406 12.6914 10.9922 12.6914C12.4766 12.6914 13.7305 12.957 14.7539 13.4883C15.7773 14.0195 16.5703 14.75 17.1328 15.6797C17.6953 16.6016 18.0273 17.6523 18.1289 18.832H14.0273C14.0117 18.1914 13.9023 17.6562 13.6992 17.2266C13.4961 16.7891 13.1758 16.4609 12.7383 16.2422C12.3008 16.0234 11.7188 15.9141 10.9922 15.9141C10.4844 15.9141 10.043 16.0078 9.66797 16.1953C9.29297 16.3828 8.98047 16.6797 8.73047 17.0859C8.48047 17.4922 8.29297 18.0195 8.16797 18.668C8.05078 19.3086 7.99219 20.082 7.99219 20.9883V21.9375C7.99219 22.8438 8.04688 23.6172 8.15625 24.2578C8.26562 24.8984 8.44141 25.4219 8.68359 25.8281C8.92578 26.2344 9.23828 26.5352 9.62109 26.7305C10.0117 26.918 10.4883 27.0117 11.0508 27.0117C11.6758 27.0117 12.2031 26.9141 12.6328 26.7188C13.0625 26.5156 13.3945 26.2109 13.6289 25.8047C13.8633 25.3906 13.9883 24.8633 14.0039 24.2227ZM26.8594 24.2109H22.6172V21.0352H26.8594C27.4375 21.0352 27.9062 20.9375 28.2656 20.7422C28.625 20.5469 28.8867 20.2773 29.0508 19.9336C29.2227 19.582 29.3086 19.1875 29.3086 18.75C29.3086 18.2812 29.2227 17.8477 29.0508 17.4492C28.8867 17.0508 28.625 16.7305 28.2656 16.4883C27.9062 16.2383 27.4375 16.1133 26.8594 16.1133H24.1641V30H20.0508V12.9375H26.8594C28.2266 12.9375 29.4023 13.1875 30.3867 13.6875C31.3789 14.1875 32.1406 14.875 32.6719 15.75C33.2031 16.6172 33.4688 17.6094 33.4688 18.7266C33.4688 19.8281 33.2031 20.7891 32.6719 21.6094C32.1406 22.4297 31.3789 23.0703 30.3867 23.5312C29.4023 23.9844 28.2266 24.2109 26.8594 24.2109ZM40.8281 16.5234L36.668 30H32.25L38.5195 12.9375H41.3203L40.8281 16.5234ZM44.2734 30L40.1016 16.5234L39.5625 12.9375H42.3984L48.7031 30H44.2734ZM44.1094 23.6367V26.8125H35.3555V23.6367H44.1094Z" fill="#000000"/>
</g>
<path d="M66.7969 19.7109V22.875H58.043V19.7109H66.7969ZM59.4141 12.9375V30H55.3008V12.9375H59.4141ZM69.5625 12.9375V30H65.4609V12.9375H69.5625ZM81.0745 26.918V17.3203H85.0355V30H81.3323L81.0745 26.918ZM81.4495 24.3398L82.4808 24.3164C82.4808 25.168 82.3792 25.957 82.1761 26.6836C81.973 27.4023 81.6722 28.0273 81.2738 28.5586C80.8831 29.0898 80.3988 29.5039 79.8206 29.8008C79.2503 30.0898 78.5902 30.2344 77.8402 30.2344C77.2152 30.2344 76.6409 30.1484 76.1175 29.9766C75.6019 29.7969 75.1566 29.5195 74.7816 29.1445C74.4066 28.7617 74.1136 28.2734 73.9027 27.6797C73.6995 27.0781 73.598 26.3594 73.598 25.5234V17.3203H77.5472V25.5469C77.5472 25.8281 77.5823 26.0703 77.6527 26.2734C77.723 26.4766 77.8245 26.6484 77.9573 26.7891C78.0902 26.9219 78.2542 27.0234 78.4495 27.0938C78.6527 27.1562 78.8831 27.1875 79.1409 27.1875C79.7347 27.1875 80.1995 27.0625 80.5355 26.8125C80.8714 26.5625 81.1058 26.2227 81.2386 25.793C81.3792 25.3633 81.4495 24.8789 81.4495 24.3398ZM92.7741 20.0273V30H88.8248V17.3203H92.528L92.7741 20.0273ZM92.3053 23.2266L91.3795 23.25C91.3795 22.2812 91.4967 21.418 91.7311 20.6602C91.9655 19.8945 92.2975 19.2461 92.7272 18.7148C93.1569 18.1836 93.6686 17.7812 94.2623 17.5078C94.8639 17.2266 95.5319 17.0859 96.2663 17.0859C96.8522 17.0859 97.3873 17.1719 97.8717 17.3438C98.3639 17.5156 98.7858 17.793 99.1373 18.1758C99.4967 18.5586 99.7702 19.0664 99.9577 19.6992C100.153 20.3242 100.251 21.0977 100.251 22.0195V30H96.278V22.0078C96.278 21.5 96.2077 21.1133 96.067 20.8477C95.9264 20.5742 95.7233 20.3867 95.4577 20.2852C95.192 20.1836 94.8678 20.1328 94.485 20.1328C94.0788 20.1328 93.735 20.2109 93.4538 20.3672C93.1725 20.5234 92.9459 20.7422 92.7741 21.0234C92.61 21.2969 92.4889 21.6211 92.4108 21.9961C92.3405 22.3711 92.3053 22.7812 92.3053 23.2266ZM110.802 17.3203V20.0625H103.161V17.3203H110.802ZM104.767 14.168H108.716V25.8633C108.716 26.1992 108.755 26.4609 108.833 26.6484C108.911 26.8281 109.044 26.957 109.231 27.0352C109.427 27.1055 109.685 27.1406 110.005 27.1406C110.231 27.1406 110.419 27.1367 110.567 27.1289C110.716 27.1133 110.856 27.0938 110.989 27.0703V29.8945C110.653 30.0039 110.302 30.0859 109.935 30.1406C109.567 30.2031 109.177 30.2344 108.763 30.2344C107.919 30.2344 107.196 30.1016 106.595 29.8359C106.001 29.5703 105.548 29.1523 105.235 28.582C104.923 28.0117 104.767 27.2695 104.767 26.3555V14.168ZM120.193 30.2344C119.161 30.2344 118.24 30.0742 117.427 29.7539C116.615 29.4258 115.927 28.9766 115.365 28.4062C114.81 27.8359 114.384 27.1797 114.087 26.4375C113.798 25.6953 113.654 24.9102 113.654 24.082V23.6367C113.654 22.707 113.783 21.8477 114.04 21.0586C114.298 20.2617 114.681 19.5664 115.189 18.9727C115.697 18.3789 116.333 17.918 117.099 17.5898C117.865 17.2539 118.755 17.0859 119.771 17.0859C120.669 17.0859 121.474 17.2305 122.185 17.5195C122.896 17.8086 123.497 18.2227 123.99 18.7617C124.49 19.3008 124.868 19.9531 125.126 20.7188C125.392 21.4844 125.525 22.3438 125.525 23.2969V24.9023H115.165V22.4297H121.669V22.125C121.677 21.7031 121.603 21.3438 121.447 21.0469C121.298 20.75 121.079 20.5234 120.79 20.3672C120.501 20.2109 120.15 20.1328 119.736 20.1328C119.306 20.1328 118.95 20.2266 118.669 20.4141C118.396 20.6016 118.181 20.8594 118.025 21.1875C117.876 21.5078 117.771 21.8789 117.708 22.3008C117.646 22.7227 117.615 23.168 117.615 23.6367V24.082C117.615 24.5508 117.677 24.9766 117.802 25.3594C117.935 25.7422 118.122 26.0703 118.365 26.3438C118.615 26.6094 118.911 26.8164 119.255 26.9648C119.607 27.1133 120.005 27.1875 120.45 27.1875C120.99 27.1875 121.521 27.0859 122.044 26.8828C122.568 26.6797 123.017 26.3438 123.392 25.875L125.185 28.0078C124.927 28.375 124.56 28.7305 124.083 29.0742C123.615 29.418 123.052 29.6992 122.396 29.918C121.74 30.1289 121.005 30.2344 120.193 30.2344ZM132.795 20.4609V30H128.845V17.3203H132.537L132.795 20.4609ZM136.545 17.2266L136.474 20.8945C136.318 20.8789 136.107 20.8594 135.841 20.8359C135.576 20.8125 135.353 20.8008 135.173 20.8008C134.713 20.8008 134.314 20.8555 133.978 20.9648C133.65 21.0664 133.377 21.2227 133.158 21.4336C132.947 21.6367 132.791 21.8945 132.689 22.207C132.595 22.5195 132.552 22.8828 132.56 23.2969L131.845 22.8281C131.845 21.9766 131.927 21.2031 132.091 20.5078C132.263 19.8047 132.505 19.1992 132.818 18.6914C133.13 18.1758 133.509 17.7812 133.955 17.5078C134.4 17.2266 134.9 17.0859 135.455 17.0859C135.65 17.0859 135.841 17.0977 136.029 17.1211C136.224 17.1445 136.396 17.1797 136.545 17.2266Z" fill="#000000"/>
<defs>
<clipPath id="clip0_6_22">
<rect width="43" height="43" fill="white"/>
</clipPath>
</defs>
</svg>